HIERARCHY
ROOT Hips
{
	OFFSET -3.958830 18.904000 13.208200
	CHANNELS 6 Xposition Yposition Zposition Zrotation Yrotation Xrotation 
	JOINT LHipJoint
	{
		OFFSET 0.000000 0.000000 0.000000
		CHANNELS 3 Zrotation Yrotation Xrotation
		JOINT LeftUpLeg
		{
			OFFSET 1.800000 -1.400000 0.085000
			CHANNELS 3 Zrotation Yrotation Xrotation
			JOINT LeftLeg
			{
				OFFSET 2.215000 -6.000000 0.000000
				CHANNELS 3 Zrotation Yrotation Xrotation
				JOINT LeftFoot
				{
					OFFSET 2.500000 -6.900000 0.000000
					CHANNELS 3 Zrotation Yrotation Xrotation
					JOINT LeftToeBase
					{
						OFFSET 0.200000 -0.500000 1.950000
						CHANNELS 3 Zrotation Yrotation Xrotation
						End Site
						{
							OFFSET 0.000000 0.000000 0.000000
						}
					}
				}
			}
		}
	}
	JOINT RHipJoint
	{
		OFFSET 0.000000 0.000000 0.000000
		CHANNELS 3 Zrotation Yrotation Xrotation
		JOINT RightUpLeg
		{
			OFFSET -1.800000 -1.400000 0.085000
			CHANNELS 3 Zrotation Yrotation Xrotation
			JOINT RightLeg
			{
				OFFSET -2.215000 -6.000000 0.000000
				CHANNELS 3 Zrotation Yrotation Xrotation
				JOINT RightFoot
				{
					OFFSET -2.500000 -6.900000 0.000000
					CHANNELS 3 Zrotation Yrotation Xrotation
					JOINT RightToeBase
					{
						OFFSET -0.200000 -0.500000 1.950000
						CHANNELS 3 Zrotation Yrotation Xrotation
						End Site
						{
							OFFSET 0.000000 0.000000 0.000000
						}
					}
				}
			}
		}
	}
	JOINT LowerBack
	{
		OFFSET 0.000000 0.000000 0.000000
		CHANNELS 3 Zrotation Yrotation Xrotation
		JOINT Spine
		{
			OFFSET -0.087000 1.940000 -0.288900
			CHANNELS 3 Zrotation Yrotation Xrotation
			JOINT Spine1
			{
				OFFSET 0.000000 1.950000 0.060000
				CHANNELS 3 Zrotation Yrotation Xrotation
				JOINT Neck
				{
					OFFSET 0.000000 0.000000 0.000000
					CHANNELS 3 Zrotation Yrotation Xrotation
					JOINT Neck1
					{
						OFFSET 0.000000 1.600000 0.340000
						CHANNELS 3 Zrotation Yrotation Xrotation
						JOINT Head
						{
							OFFSET 0.000000 1.667000 -0.240000
							CHANNELS 3 Zrotation Yrotation Xrotation
							End Site
							{
								OFFSET 0.000000 0.000000 0.000000
							}
						}
					}
				}
				JOINT LeftShoulder
				{
					OFFSET 0.000000 0.000000 0.000000
					CHANNELS 3 Zrotation Yrotation Xrotation
					JOINT LeftArm
					{
						OFFSET 2.700000 1.550000 -0.730000
						CHANNELS 3 Zrotation Yrotation Xrotation
						JOINT LeftForeArm
						{
							OFFSET 5.450000 0.000000 0.000000
							CHANNELS 3 Zrotation Yrotation Xrotation
							JOINT LeftHand
							{
								OFFSET 3.450000 0.000000 0.000000
								CHANNELS 3 Zrotation Yrotation Xrotation
								JOINT LeftHandIndex1
								{
									OFFSET 0.750000 0.000000 0.000000
									CHANNELS 3 Zrotation Yrotation Xrotation
									End Site
									{
										OFFSET 0.000000 0.000000 0.000000
									}
								}
							}
						}
					}
				}
				JOINT RightShoulder
				{
					OFFSET 0.000000 0.000000 0.000000
					CHANNELS 3 Zrotation Yrotation Xrotation
					JOINT RightArm
					{
						OFFSET -2.700000 1.550000 -0.730000
						CHANNELS 3 Zrotation Yrotation Xrotation
						JOINT RightForeArm
						{
							OFFSET -5.450000 0.000000 0.000000
							CHANNELS 3 Zrotation Yrotation Xrotation
							JOINT RightHand
							{
								OFFSET -3.450000 0.000000 0.000000
								CHANNELS 3 Zrotation Yrotation Xrotation
								JOINT RightHandIndex1
								{
									OFFSET -0.750000 0.000000 0.000000
									CHANNELS 3 Zrotation Yrotation Xrotation
									End Site
									{
										OFFSET 0.000000 0.000000 0.000000
									}
								}
							}
						}
					}
				}
			}
		}
	}
}
MOTION
Frames: 8
Frame Time: 0.016667
-13.719450 17.609100 -4.825220 -4.514975 -14.521739 3.297712 -15.303099 12.451282 3.532474 5.238270 -3.507975 -22.221650 -3.687462 1.398742 -7.664279 -1.582521 3.853774 3.453616 0.738990 0.672560 0.129820 18.439964 -9.714316 2.605954 -0.824587 -1.871139 1.821402 8.485819 -5.089061 4.381391 -0.623859 -4.905830 2.579765 0.992910 1.120370 0.501130 -3.636318 -3.377213 -7.015121 10.679421 -0.390175 2.464938 -1.880666 0.052635 10.916660 -4.422003 -5.310305 -9.342376 -11.209355 25.152709 16.685296 11.101800 12.653410 -10.603750 -6.229081 -17.348482 2.985100 -18.615019 -26.567118 2.942259 1.027671 -60.592444 -2.016972 -4.083457 3.025354 0.541300 0.676550 -0.156230 0.544230 15.238795 17.134197 5.138998 4.857303 11.923871 -1.584370 -13.351023 29.999005 -2.642692 1.472520 -1.544807 -0.673350 0.814130 0.086860 0.016550 
-13.713210 17.610680 -4.811850 -4.429931 -14.860050 3.283057 -15.359905 12.593866 3.543683 5.233075 -3.568571 -22.256637 -3.648414 1.451905 -7.387275 -1.652013 3.925103 3.437251 0.728460 0.637420 0.221300 18.386078 -9.581711 2.587661 -0.902939 -1.833485 2.016999 8.311976 -5.045700 4.245099 -0.616023 -4.893232 2.547544 1.002520 1.129680 0.499970 -3.471105 -3.867831 -7.012211 9.993663 -0.578060 2.315188 -1.557257 -0.071627 11.500561 -4.471422 -5.282070 -10.155362 -11.754890 28.450820 15.249080 10.364970 15.965240 -9.917710 -5.762660 -18.356415 3.679994 -18.401796 -25.550838 1.945866 3.221379 -60.798784 -3.623644 -4.124807 3.000113 0.561250 0.714160 -0.165510 0.498450 15.018938 17.547853 5.710933 4.429574 8.699724 -1.952050 -12.585063 32.714481 -2.570950 1.407336 -1.577254 -0.732700 0.826430 0.091810 -0.044730 
-13.701800 17.615750 -4.799970 -4.372049 -15.266716 2.880735 -15.407151 12.725566 3.569307 5.269479 -3.569451 -21.780317 -3.700338 1.489129 -7.538822 -1.727388 4.011634 3.399948 0.744200 0.585910 0.398600 18.336952 -9.453974 2.584919 -1.238299 -1.865720 2.621473 8.444603 -5.104828 3.958631 -0.661438 -4.856048 2.500109 0.982120 1.062030 0.477980 -3.325473 -4.335659 -7.062845 9.442659 -0.608878 2.651881 -1.436053 -0.011455 12.430933 -4.351809 -5.174026 -11.294970 -12.175836 31.588181 14.657494 10.111980 19.570280 -10.933480 -5.420329 -20.016145 4.484103 -17.782268 -24.395248 0.492390 5.047493 -60.719752 -5.059090 -4.075060 2.941658 0.684670 0.664510 -0.113240 0.427510 14.514348 18.502764 6.617595 5.278043 5.871139 -2.765741 -14.223775 33.845888 -3.066408 1.380701 -1.545199 -0.806230 0.843100 0.077650 -0.148220 
-13.687940 17.617840 -4.800910 -4.434859 -15.420902 2.403220 -15.463962 12.883423 3.569623 5.327543 -3.523219 -21.470308 -3.509886 1.572928 -7.325493 -1.853719 4.111642 3.380110 0.737360 0.530090 0.523340 18.280874 -9.325766 2.586880 -1.164843 -1.940611 3.216319 8.336201 -5.119218 3.876392 -0.659631 -4.845464 2.479422 0.991560 1.069440 0.421560 -3.148788 -4.832334 -7.102120 8.758726 -0.401889 2.835847 -1.084653 0.177970 14.242346 -4.346980 -4.462632 -12.623489 -11.319194 33.463650 13.951672 9.773070 21.955160 -11.335120 -4.152784 -22.304105 5.290460 -17.343012 -23.992709 -1.162732 7.125229 -60.295726 -6.743686 -4.053894 2.869186 0.763610 0.666960 -0.131050 0.370540 13.247540 19.499769 7.657866 7.331979 3.410101 -3.400710 -17.202195 32.420025 -3.920749 1.335067 -1.517107 -0.921000 0.916460 0.089670 -0.236380 
-13.669560 17.621000 -4.808220 -4.879024 -15.434755 1.803727 -15.529327 13.020382 3.555014 5.531333 -3.384029 -20.927455 -3.242156 1.665474 -7.365209 -1.997872 4.304383 3.376874 0.697810 0.453890 0.613640 18.226876 -9.181264 2.595351 -0.608719 -2.116063 4.004531 8.191261 -5.150256 3.886519 -0.623315 -4.911254 2.473251 1.021110 1.168970 0.356280 -2.963228 -5.306588 -7.146250 8.322377 -0.023669 3.005556 -0.633766 0.324979 17.401609 -4.406799 -3.165352 -14.256936 -9.283178 33.930203 13.348630 8.450320 23.358470 -10.909170 -1.523599 -25.272909 6.653098 -17.172056 -23.442797 -3.955147 10.898622 -61.424798 -10.109354 -4.067265 2.768058 0.792670 0.751100 -0.206640 0.339200 10.530269 20.589629 8.354972 11.201148 2.422165 -4.100544 -21.350432 29.605950 -5.092902 1.274109 -1.518206 -1.081560 1.040380 0.105130 -0.305080 
-13.647180 17.630660 -4.804190 -5.484949 -15.173912 1.334094 -15.526279 13.068043 3.513599 5.585402 -3.239588 -20.338536 -2.747816 1.700740 -7.415536 -1.997530 4.323983 3.383180 0.670240 0.416830 0.621350 18.239945 -9.139603 2.628349 0.308129 -2.372508 4.637066 7.850355 -5.160030 4.064372 -0.623033 -4.935822 2.471365 1.000250 1.179220 0.327670 -2.983770 -5.437138 -7.164145 9.443190 -0.261985 3.377286 -0.995045 0.088592 18.655170 -4.424476 -3.023226 -15.211051 -9.258676 34.412046 13.615760 8.648600 24.141430 -10.306800 -0.190156 -26.446064 7.510646 -17.604698 -23.769567 -5.064678 12.664456 -60.614544 -11.390957 -4.018611 2.769123 0.797270 0.750810 -0.225460 0.326440 9.071713 20.974090 8.543349 13.071950 1.407256 -4.841888 -22.456494 30.554490 -5.576057 1.255066 -1.527943 -1.111030 1.048230 0.106980 -0.316010 
-13.663120 17.630750 -4.804830 -4.884722 -15.895306 1.561361 -15.499331 13.066114 3.544171 5.587639 -3.350138 -20.748504 -2.950361 1.700276 -7.174815 -1.850366 4.159500 3.423631 0.645590 0.415250 0.546590 18.242136 -9.219838 2.594898 -1.009991 -2.197166 4.155085 8.357779 -5.241024 4.129334 -0.622229 -4.886119 2.507377 0.930720 1.128300 0.310430 -3.026853 -5.321514 -7.156591 8.919931 -0.497790 3.283776 -1.173373 0.113607 16.553387 -4.212738 -3.909941 -14.741028 -10.904864 35.925423 14.215719 10.767800 24.974460 -9.203450 -1.837986 -24.859077 7.031279 -18.120013 -22.991193 -3.724673 9.062297 -61.820784 -9.028715 -3.950413 2.852445 0.782700 0.674120 -0.195900 0.345700 10.582291 20.675560 8.726577 11.966645 1.618918 -4.353834 -20.982587 29.918671 -4.898236 1.377646 -1.508840 -1.037850 0.975290 0.081340 -0.266530 
-13.661630 17.627620 -4.809000 -4.879384 -16.324172 1.123703 -15.453122 13.055406 3.545631 5.884399 -3.237286 -20.350280 -3.048915 1.718669 -7.244748 -1.582484 4.031159 3.438021 0.563840 0.364430 0.373150 18.267411 -9.288967 2.625586 -1.549201 -2.303614 4.657237 8.552598 -5.340416 3.897586 -0.646876 -4.936909 2.522171 0.793970 1.069850 0.364730 -3.129001 -5.176491 -7.216335 9.690506 -0.841179 4.171345 -1.378651 -0.001260 15.377601 -3.793954 -4.964579 -14.999125 -13.050317 36.267351 16.142703 12.442740 25.124070 -6.991210 -3.219946 -24.116932 7.080444 -18.319443 -22.715786 -3.063678 7.759941 -60.534137 -7.629606 -3.892307 3.007703 0.715980 0.618030 -0.157190 0.370990 11.243173 20.985884 9.298630 9.585777 -0.290465 -4.474142 -18.006192 32.605100 -4.048217 1.462388 -1.540951 -0.884440 0.803110 0.080550 -0.177030 
